<svg xmlns="http://www.w3.org/2000/svg" viewBox="0 0 562.61 715.99"><title>calculator</title><path d="M230.42,122.73c8.16-.92,16.38-.7,24.58-.72q231,0,462,0c11.8.21,24.69,1.09,34.39,8.57,8.68,7,9.74,19,9.88,29.36q0,314,0,628c-.06,9.55.5,19.28-1.87,28.63a24.78,24.78,0,0,1-13.53,16.26C734.73,838.18,722.06,838,710,838q-233.5,0-467,0c-12-.24-25.29-1-34.94-9-8.28-7.09-9.17-18.74-9.33-28.89q-.06-315,0-630c.21-11.41-1-23.92,5.19-34.09C209.57,127.05,220.54,123.9,230.42,122.73Zm23,185.84c-13.63,1.69-24.62,14.67-24.28,28.38,0,19.35-.1,38.72,0,58.07,0,14.72,13.22,27.52,27.82,27.64,19.65,0,39.31.06,59,0,14.64-.12,27.58-13,27.72-27.67q.18-29.44,0-58.92c-.07-15-13.56-28.21-28.61-27.83C294.5,308.46,273.91,307.73,253.39,308.57Zm129,0c-13.82,1.53-24.78,14.59-24.51,28.39,0,19.36-.18,38.74.07,58.09.05,14.76,13.36,27.68,28,27.63,19.65,0,39.31.07,58.95,0,14.69-.18,27.42-13.14,27.62-27.78.21-19.56.16-39.14,0-58.7-.11-15-13.54-28.15-28.57-27.91C423.48,308.42,402.9,307.76,382.39,308.56Zm128,0c-13.7,1.67-24.61,14.66-24.33,28.4,0,19.35-.13,38.71.06,58.05,0,14.74,13.24,27.53,27.86,27.65,19.65,0,39.31.07,59,0,14.64-.13,27.57-13.05,27.69-27.69q.11-29.43,0-58.88c0-15-13.55-28.22-28.58-27.85C551.5,308.46,530.91,307.74,510.39,308.56Zm130,0c-13.31,1.77-24,14.14-24,27.54q-.15,29.36,0,58.72c0,14.74,13,27.73,27.78,27.75,19.62.13,39.25,0,58.87,0,14.63-.06,27.72-12.89,27.86-27.56.14-19.73,0-39.46,0-59.19,0-15-13.88-28.2-28.87-27.68C681.5,308.5,660.9,307.71,640.38,308.6Zm-387,128.85c-13.42,1.6-24.24,14.05-24.21,27.53-.12,19.35,0,38.72,0,58.07-.25,14.88,12.86,28.52,27.85,28.27,19.69,0,39.39.08,59.08,0,14.63.12,27.41-12.82,27.62-27.34.14-19.62.09-39.27,0-58.89.07-15.08-13.55-28.41-28.63-28C294.5,437.29,273.88,436.51,253.36,437.45Zm128,.07c-13.07,2-23.34,14.27-23.43,27.44-.19,19.36-.13,38.74,0,58.1-.2,14.57,12.34,28.06,27,28.2,20,.15,40.07.11,60.1,0,14.95-.08,27.58-13.55,27.57-28.34.07-19.26.14-38.54,0-57.8-.06-15-13.37-28.49-28.53-28.08C423.17,437.32,402.21,436.42,381.36,437.52Zm128,0c-13,2.09-23.27,14.26-23.29,27.43-.16,19.34-.08,38.71,0,58.06-.21,14.88,12.86,28.54,27.89,28.26,19.69,0,39.39.1,59.08,0,14.62.11,27.4-12.83,27.59-27.34.14-19.33,0-38.68.07-58,.33-14.6-12-28.3-26.73-28.76C552.46,437.2,530.86,436.45,509.4,437.56Zm131-.12c-13.34,1.8-24.1,14.24-24,27.71-.08,19.56-.11,39.14,0,58.71,0,14.54,13,27.55,27.58,27.46q29.53.06,59.08,0c14.6.18,27.57-12.71,27.84-27.23.18-19.39,0-38.79.08-58.18.4-13.49-10.11-26.27-23.46-28.35-9.11-1.2-18.34-.3-27.49-.56C666.79,437.29,653.52,436.4,640.35,437.44ZM251.41,566.56c-12.63,2.55-22.3,14.54-22.26,27.42-.1,19.34-.07,38.69,0,58-.23,14.85,12.9,28.28,27.8,28.11q29.55.06,59.13,0c14.47,0,27.36-12.71,27.58-27.17.18-19.65.06-39.32.06-59,.15-15.13-13.48-28.58-28.65-28.07C293.86,566.33,272.54,565.05,251.41,566.56Zm129,0c-12.74,2.31-22.5,14.54-22.5,27.41q-.2,29.05,0,58.12c-.23,14.94,13.06,28.33,28,28.06,19.7,0,39.41.1,59.11,0,15.21,0,27.88-14.16,27.62-29.08,0-19,.12-37.91-.09-56.86-.05-15-13.28-28.75-28.52-28.23C422.86,566.29,401.55,565.11,380.41,566.53Zm128,0C495.81,569.12,486,581.07,486.08,594q-.12,29,0,58.09c-.09,14.43,12.25,27.86,26.88,28,20,.18,40.08.07,60.11.05,14.85.08,27.78-13.35,27.61-28.1,0-19.65.09-39.31,0-59-.35-14.78-13.73-27.63-28.56-27.14C550.85,566.32,529.54,565.06,508.4,566.56Zm130,0c-12.92,2.66-22.48,15.29-22.11,28.4.08,19.29-.14,38.59.09,57.88.22,14.46,13,27.33,27.54,27.25,20,0,40.07.15,60.09-.07,14.57-.27,27-13.54,26.87-28,0-19.63.19-39.28-.08-58.91-.23-14.9-13.84-27.83-28.75-27.2C680.86,566.38,659.54,565.06,638.41,566.59Zm-387,128.81c-12.7,2.45-22.39,14.66-22.27,27.55,0,19.35-.08,38.72,0,58.07-.08,14.79,12.94,28.09,27.8,27.94,19.7,0,39.42.08,59.12,0,14.76,0,27.65-13.26,27.65-27.92,0-19.66.11-39.32,0-59-.14-15.33-14.42-28.25-29.63-27.37C293.17,695.19,272.18,693.75,251.39,695.4Zm128,.11c-11.91,2.84-21.19,14.13-21.44,26.43-.39,16.34,0,32.71-.16,49.06,0,6.46-.43,13.16,1.83,19.34,3.9,10.74,14.72,18.79,26.26,18.66,19.72,0,39.45.09,59.17,0,14.81-.08,27.44-13.43,27.48-28.1.14-19.56.18-39.14,0-58.69-.28-15.25-14.24-28.3-29.49-27.5C421.85,695.23,400.51,693.6,379.41,695.51Zm128,0c-12.25,3-21.42,14.86-21.32,27.45-.17,18.35.05,36.71-.1,55.07-1.25,15.05,10.65,30,25.95,30.81,20,.36,40.1,0,60.14.15,15.08.47,28.67-13,28.58-28,0-19.62.11-39.24-.06-58.86-.1-15.3-14.33-28.47-29.58-27.51C549.83,695.27,528.49,693.57,507.41,695.53Zm130,.05a28.63,28.63,0,0,0-21.06,26.56c-.28,16.61.08,33.23-.12,49.85,0,6.51-.36,13.31,2.24,19.43A28.47,28.47,0,0,0,644.92,809c19.38,0,38.78,0,58.16,0,14.78.12,27.88-13.16,27.84-27.88,0-19.71.13-39.43-.07-59.14-.23-15.35-14.54-28.32-29.82-27.31C679.86,695.29,658.51,693.5,637.45,695.58Z" transform="translate(-198.7 -122)" style="fill:#292f77"/><path d="M252.51,159.3c6.32-1,12.76-.51,19.13-.58H689.38c8.27.12,17.05-1,24.77,2.67A28.89,28.89,0,0,1,730.92,187c0,19.37,0,38.74,0,58.1.52,15.45-13.16,29.79-28.87,29.29H269.69c-8.23-.12-17.06,1-24.6-3a29.33,29.33,0,0,1-16-26.3c.07-19.36,0-38.74,0-58.1C229.1,173.85,239.41,161.54,252.51,159.3Z" transform="translate(-198.7 -122)" style="fill:#ccc"/><path d="M253.39,308.57c20.52-.84,41.11-.11,61.66-.36,15.05-.38,28.54,12.8,28.61,27.83q.18,29.46,0,58.92c-.14,14.65-13.08,27.55-27.72,27.67-19.65.09-39.31,0-59,0-14.6-.12-27.83-12.92-27.82-27.64-.15-19.35,0-38.72,0-58.07C228.77,323.24,239.76,310.26,253.39,308.57Z" transform="translate(-198.7 -122)" style="fill:#c2097c"/><path d="M382.39,308.56c20.51-.8,41.09-.14,61.62-.32,15-.24,28.46,12.88,28.57,27.91.14,19.56.19,39.14,0,58.7-.2,14.64-12.93,27.6-27.62,27.78-19.64.11-39.3,0-58.95,0-14.68.05-28-12.87-28-27.63-.25-19.35-.11-38.73-.07-58.09C357.61,323.15,368.57,310.09,382.39,308.56Z" transform="translate(-198.7 -122)" style="fill:#c2097c"/><path d="M510.39,308.56c20.52-.82,41.11-.1,61.66-.35,15-.37,28.55,12.81,28.58,27.85q.12,29.43,0,58.88c-.12,14.64-13,27.56-27.69,27.69-19.65.1-39.31,0-59,0-14.62-.12-27.84-12.91-27.86-27.65-.19-19.34-.06-38.7-.06-58.05C485.78,323.22,496.69,310.23,510.39,308.56Z" transform="translate(-198.7 -122)" style="fill:#c2097c"/><path d="M253.36,437.45c20.52-.94,41.14-.16,61.69-.38,15.08-.42,28.7,12.91,28.63,28,.07,19.62.12,39.27,0,58.89-.21,14.52-13,27.46-27.62,27.34-19.69.11-39.39.05-59.08,0-15,.25-28.1-13.39-27.85-28.27,0-19.35-.08-38.72,0-58.07C229.12,451.5,239.94,439.05,253.36,437.45Z" transform="translate(-198.7 -122)" style="fill:#c2097c"/><path d="M381.36,437.52c20.85-1.1,41.81-.2,62.69-.45,15.16-.41,28.47,13.05,28.53,28.08.18,19.26.11,38.54,0,57.8,0,14.79-12.62,28.26-27.57,28.34-20,.08-40.07.12-60.1,0-14.7-.14-27.24-13.63-27-28.2-.11-19.36-.17-38.74,0-58.1C358,451.79,368.29,439.53,381.36,437.52Z" transform="translate(-198.7 -122)" style="fill:#c2097c"/><path d="M509.4,437.56c21.46-1.11,43.06-.36,64.57-.38,14.74.46,27.06,14.16,26.73,28.76-.1,19.33.07,38.68-.07,58-.19,14.51-13,27.45-27.59,27.34-19.69.12-39.39.05-59.08,0-15,.28-28.1-13.38-27.89-28.26,0-19.35-.12-38.72,0-58.06C486.13,451.82,496.39,439.65,509.4,437.56Z" transform="translate(-198.7 -122)" style="fill:#c2097c"/><path d="M251.41,566.56c21.13-1.51,42.45-.23,63.65-.65,15.17-.51,28.8,12.94,28.65,28.07,0,19.65.12,39.32-.06,59-.22,14.46-13.11,27.19-27.58,27.17q-29.56.07-59.13,0c-14.9.17-28-13.26-27.8-28.11-.06-19.34-.09-38.69,0-58C229.11,581.1,238.78,569.11,251.41,566.56Z" transform="translate(-198.7 -122)" style="fill:#c2097c"/><path d="M380.41,566.53c21.14-1.42,42.45-.24,63.65-.61,15.24-.52,28.47,13.21,28.52,28.23.21,19,.05,37.91.09,56.86.26,14.92-12.41,29.11-27.62,29.08-19.7.13-39.41,0-59.11,0-15,.27-28.26-13.12-28-28.06q-.2-29.05,0-58.12C357.91,581.07,367.67,568.84,380.41,566.53Z" transform="translate(-198.7 -122)" style="fill:#c2097c"/><path d="M508.4,566.56c21.14-1.5,42.45-.24,63.66-.65,14.83-.49,28.21,12.36,28.56,27.14.14,19.65,0,39.31,0,59,.17,14.75-12.76,28.18-27.61,28.1-20,0-40.08.13-60.11-.05-14.63-.16-27-13.59-26.88-28q-.09-29,0-58.09C486,581.07,495.81,569.12,508.4,566.56Z" transform="translate(-198.7 -122)" style="fill:#c2097c"/><path d="M251.39,695.4c20.79-1.65,41.78-.21,62.64-.73,15.21-.88,29.49,12,29.63,27.37.16,19.66,0,39.32,0,59,0,14.66-12.89,28-27.65,27.92-19.7.1-39.42.06-59.12,0-14.86.15-27.88-13.15-27.8-27.94-.1-19.35,0-38.72,0-58.07C229,710.06,238.69,697.85,251.39,695.4Z" transform="translate(-198.7 -122)" style="fill:#c2097c"/><path d="M640.38,308.6c20.52-.89,41.12-.1,61.67-.38,15-.52,28.86,12.65,28.87,27.68,0,19.73.1,39.46,0,59.19-.14,14.67-13.23,27.5-27.86,27.56-19.62,0-39.25.09-58.87,0-14.73,0-27.77-13-27.78-27.75q-.17-29.36,0-58.72C616.4,322.74,627.07,310.37,640.38,308.6Zm29.23,33.92c-5.06,1.79-5.18,10.28,0,12.07,3.91,1.63,9-1.12,8.83-5.62C679,344.24,673.87,340.71,669.61,342.52Zm-26.39,20.62c0,2.28,0,4.57,0,6.85,19.21.65,38.48.45,57.7.11,0-2.35,0-4.71,0-7.05C681.7,362.86,662.45,362.68,643.22,363.14Zm27.29,15.28c-5.24.85-6.4,8.54-2.32,11.47,3.56,2.67,9.71.71,10.13-4C679.37,381.41,675,376.83,670.51,378.42Z" transform="translate(-198.7 -122)" style="fill:#bcc0c7"/><path d="M640.35,437.44c13.17-1,26.44-.15,39.65-.44,9.15.26,18.38-.64,27.49.56,13.35,2.08,23.86,14.86,23.46,28.35-.08,19.39.1,38.79-.08,58.18-.27,14.52-13.24,27.41-27.84,27.23q-29.53.06-59.08,0c-14.58.09-27.53-12.92-27.58-27.46-.12-19.57-.09-39.15,0-58.71C616.25,451.68,627,439.24,640.35,437.44ZM653.81,464c2.87,7.28,6.86,14,10.46,20.95,1.13,2.39,2.77,5.15,1.5,7.82-4,9.21-9.66,17.64-13.06,27.13l8.21.09c4.2-7.11,6.89-15,11-22.14,3.92,7.11,7,14.64,10.5,21.93l8.92.19c-3.26-9.26-8.79-17.46-12.94-26.31a7.11,7.11,0,0,1,.21-6.95c3.68-7.61,8-14.91,11.4-22.68l-8.77.13c-3.16,6.41-5.77,13.08-9.25,19.33-3.53-6.22-6.15-12.89-9.28-19.3Z" transform="translate(-198.7 -122)" style="fill:#bcc0c7"/><path d="M638.41,566.59c21.13-1.53,42.45-.21,63.65-.68,14.91-.63,28.52,12.3,28.75,27.2.27,19.63.11,39.28.08,58.91.17,14.49-12.3,27.76-26.87,28-20,.22-40.06.08-60.09.07-14.53.08-27.32-12.79-27.54-27.25-.23-19.29,0-38.59-.09-57.88C615.93,581.88,625.49,569.25,638.41,566.59ZM645,622.33q-.06,3.18-.09,6.38,28.1.1,56.19,0-.06-3.21-.1-6.39Z" transform="translate(-198.7 -122)" style="fill:#bcc0c7"/><path d="M379.41,695.51c21.1-1.91,42.44-.28,63.63-.85,15.25-.8,29.21,12.25,29.49,27.5.2,19.55.16,39.13,0,58.69,0,14.67-12.67,28-27.48,28.1-19.72.14-39.45,0-59.17,0-11.54.13-22.36-7.92-26.26-18.66-2.26-6.18-1.79-12.88-1.83-19.34.19-16.35-.23-32.72.16-49.06C358.22,709.64,367.5,698.35,379.41,695.51Zm32.15,51.9c-5.81,1.88-4.14,12.43,2.35,11.49C422.27,758.74,419.54,744.16,411.56,747.41Z" transform="translate(-198.7 -122)" style="fill:#bcc0c7"/><path d="M507.41,695.53c21.08-2,42.42-.26,63.61-.89,15.25-1,29.48,12.21,29.58,27.51.17,19.62,0,39.24.06,58.86.09,15-13.5,28.47-28.58,28-20-.11-40.1.21-60.14-.15-15.3-.86-27.2-15.76-25.95-30.81.15-18.36-.07-36.72.1-55.07C486,710.39,495.16,698.5,507.41,695.53Zm5.67,45.4c0,2.3,0,4.6,0,6.92,19.22.11,38.46.25,57.68-.07,0-2.27,0-4.53,0-6.78C551.55,740.37,532.29,740.5,513.08,740.93Zm0,16.35c0,2.46,0,4.93,0,7.4q28.8,0,57.6,0c0-2.47,0-4.93,0-7.38Q541.94,757.08,513.11,757.28Z" transform="translate(-198.7 -122)" style="fill:#bcc0c7"/><path d="M637.45,695.58c21.06-2.08,42.41-.29,63.58-.93,15.28-1,29.59,12,29.82,27.31.2,19.71.07,39.43.07,59.14,0,14.72-13.06,28-27.84,27.88-19.38.07-38.78,0-58.16,0a28.47,28.47,0,0,1-26.41-17.59c-2.6-6.12-2.28-12.92-2.24-19.43.2-16.62-.16-33.24.12-49.85A28.63,28.63,0,0,1,637.45,695.58ZM668,723.91c-.34,8.28.05,16.58-.21,24.87-8.28.2-16.56-.19-24.84.2q0,3.56,0,7.12c8.27.5,16.54.1,24.82.19.3,8.3-.1,16.61.24,24.92h7.1c.51-8.3.11-16.6.18-24.9,8.3-.12,16.62.29,24.92-.21,0-2.38,0-4.76,0-7.12-8.31-.39-16.62,0-24.93-.23-.06-8.28.34-16.57-.17-24.83C672.75,723.91,670.38,723.9,668,723.91Z" transform="translate(-198.7 -122)" style="fill:#bcc0c7"/><path d="M669.61,342.52c4.26-1.81,9.41,1.72,8.79,6.45.19,4.5-4.92,7.25-8.83,5.62C664.43,352.8,664.55,344.31,669.61,342.52Z" transform="translate(-198.7 -122)" style="fill:#fff"/><path d="M643.22,363.14c19.23-.46,38.48-.28,57.72-.09,0,2.34,0,4.7,0,7.05-19.22.34-38.49.54-57.7-.11C643.23,367.71,643.22,365.42,643.22,363.14Z" transform="translate(-198.7 -122)" style="fill:#fff"/><path d="M670.51,378.42c4.51-1.59,8.86,3,7.81,7.45-.42,4.73-6.57,6.69-10.13,4C664.11,387,665.27,379.27,670.51,378.42Z" transform="translate(-198.7 -122)" style="fill:#fff"/><path d="M653.81,464l8.89.19c3.13,6.41,5.75,13.08,9.28,19.3,3.48-6.25,6.09-12.92,9.25-19.33L690,464c-3.37,7.77-7.72,15.07-11.4,22.68a7.11,7.11,0,0,0-.21,6.95c4.15,8.85,9.68,17.05,12.94,26.31l-8.92-.19c-3.54-7.29-6.58-14.82-10.5-21.93-4.1,7.16-6.79,15-11,22.14l-8.21-.09c3.4-9.49,9.08-17.92,13.06-27.13,1.27-2.67-.37-5.43-1.5-7.82C660.67,478,656.68,471.23,653.81,464Z" transform="translate(-198.7 -122)" style="fill:#fff"/><path d="M645,622.33h56q0,3.18.1,6.39-28.1.07-56.19,0Q644.91,625.52,645,622.33Z" transform="translate(-198.7 -122)" style="fill:#fff"/><path d="M668,723.91c2.36,0,4.73,0,7.1,0,.51,8.26.11,16.55.17,24.83,8.31.24,16.62-.16,24.93.23,0,2.36,0,4.74,0,7.12-8.3.5-16.62.09-24.92.21-.07,8.3.33,16.6-.18,24.9H668c-.34-8.31.06-16.62-.24-24.92-8.28-.09-16.55.31-24.82-.19q0-3.57,0-7.12c8.28-.39,16.56,0,24.84-.2C668.07,740.49,667.68,732.19,668,723.91Z" transform="translate(-198.7 -122)" style="fill:#fff"/><path d="M513.08,740.93c19.21-.43,38.47-.56,57.68.07,0,2.25,0,4.51,0,6.78-19.22.32-38.46.18-57.68.07C513.09,745.53,513.08,743.23,513.08,740.93Z" transform="translate(-198.7 -122)" style="fill:#fff"/><path d="M411.56,747.41c8-3.25,10.71,11.33,2.35,11.49C407.42,759.84,405.75,749.29,411.56,747.41Z" transform="translate(-198.7 -122)" style="fill:#fff"/><path d="M513.11,757.28q28.83-.16,57.66,0c0,2.45,0,4.91,0,7.38q-28.8,0-57.6,0C513.14,762.21,513.12,759.74,513.11,757.28Z" transform="translate(-198.7 -122)" style="fill:#fff"/><text transform="translate(61.8 662.5)" style="font-size:90px;fill:#fff;font-family:ArialMT, Arial">0</text><text transform="translate(61.8 531.5)" style="font-size:90px;fill:#fff;font-family:ArialMT, Arial">1</text><text transform="translate(61.8 404.5)" style="font-size:90px;fill:#fff;font-family:ArialMT, Arial">4</text><text transform="translate(190.8 404.5)" style="font-size:90px;fill:#fff;font-family:ArialMT, Arial">5</text><text transform="translate(190.8 531.5)" style="font-size:90px;fill:#fff;font-family:ArialMT, Arial">2</text><text transform="translate(320.8 404.5)" style="font-size:90px;fill:#fff;font-family:ArialMT, Arial">6</text><text transform="translate(320.8 531.5)" style="font-size:90px;fill:#fff;font-family:ArialMT, Arial">3</text><text transform="translate(61.8 274.5)" style="font-size:90px;fill:#fff;font-family:ArialMT, Arial">7</text><text transform="translate(190.8 274.5)" style="font-size:90px;fill:#fff;font-family:ArialMT, Arial">8</text><text transform="translate(320.8 274.5)" style="font-size:90px;fill:#fff;font-family:ArialMT, Arial">9</text></svg>